<svg width="20" height="20" viewBox="0 0 20 20" fill="none" xmlns="http://www.w3.org/2000/svg">
<g clip-path="url(#clip0_725_3594)">
<path fill-rule="evenodd" clip-rule="evenodd" d="M3.33301 4.16699C3.33301 3.50395 3.5964 2.86807 4.06524 2.39923C4.53408 1.93038 5.16997 1.66699 5.83301 1.66699H14.1663C14.8294 1.66699 15.4653 1.93038 15.9341 2.39923C16.4029 2.86807 16.6663 3.50395 16.6663 4.16699V17.5237C16.6663 18.5403 15.5163 19.132 14.6897 18.5412L9.99967 15.1912L5.30967 18.5412C4.48217 19.1328 3.33301 18.5412 3.33301 17.5245V4.16699ZM5.83301 3.33366C5.61199 3.33366 5.40003 3.42146 5.24375 3.57774C5.08747 3.73402 4.99967 3.94598 4.99967 4.16699V16.7145L9.27301 13.662C9.48503 13.5105 9.7391 13.4291 9.99967 13.4291C10.2603 13.4291 10.5143 13.5105 10.7263 13.662L14.9997 16.7145V4.16699C14.9997 3.94598 14.9119 3.73402 14.7556 3.57774C14.5993 3.42146 14.3874 3.33366 14.1663 3.33366H5.83301Z" fill="#BBBBBB"/>
</g>
<defs>
<clipPath id="clip0_725_3594">
<rect width="20" height="20" fill="white"/>
</clipPath>
</defs>
</svg>
