<svg width="24" height="24" viewBox="0 0 24 24" fill="none" xmlns="http://www.w3.org/2000/svg">
<path d="M18.3086 0.0078125H23.998V5.92285C23.9984 5.94853 24 5.97425 24 6C24 6.02576 23.9984 6.05147 23.998 6.07715V6.29199H23.9922C23.8444 9.37571 21.3691 11.8481 18.2842 11.9922V11.998H18.2451V12H18.2852V12.0068C21.4664 12.156 24 14.7821 24 18C24 18.0903 23.9971 18.1802 23.9932 18.2695V24H17.709V23.9922C14.6242 23.8451 12.1497 21.3696 12.0059 18.2842H12.001V18.2441H11.999V18.2842H11.9941C11.8458 21.4659 9.21865 24 6 24C5.89221 24 5.7851 23.9968 5.67871 23.9912H0V17.707H0.0078125C0.156062 14.624 2.63063 12.1513 5.71484 12.0068V11.9922C2.53354 11.8431 8.05947e-06 9.21796 0 6C0 5.90934 0.0028563 5.81917 0.00683594 5.72949V0.00195312H5.92285C5.94854 0.00162777 5.97424 1.67797e-06 6 0C6.02563 0 6.0516 0.00163279 6.07715 0.00195312H6.29102V0.00683594C9.37582 0.153931 11.8503 2.63038 11.9941 5.71582H11.999V5.71387H12.0059C12.1552 2.53317 14.7812 0.000220365 17.999 0C18.1027 0 18.2062 0.00261625 18.3086 0.0078125Z" fill="#B1C39F"/>
<path fill-rule="evenodd" clip-rule="evenodd" d="M17.6706 7.76843C17.8229 7.9208 17.9085 8.12742 17.9085 8.34287C17.9085 8.55832 17.8229 8.76494 17.6706 8.91731L11.5806 15.0073C11.5002 15.0878 11.4046 15.1516 11.2995 15.1952C11.1943 15.2388 11.0816 15.2612 10.9677 15.2612C10.8539 15.2612 10.7412 15.2388 10.636 15.1952C10.5309 15.1516 10.4353 15.0878 10.3549 15.0073L7.3291 11.9821C7.2515 11.9071 7.1896 11.8175 7.14702 11.7183C7.10444 11.6192 7.08202 11.5126 7.08109 11.4047C7.08015 11.2968 7.10071 11.1898 7.14156 11.09C7.18241 10.9901 7.24274 10.8994 7.31903 10.8231C7.39532 10.7468 7.48604 10.6865 7.58589 10.6456C7.68574 10.6048 7.79273 10.5842 7.90061 10.5852C8.0085 10.5861 8.11511 10.6085 8.21424 10.6511C8.31337 10.6937 8.40303 10.7556 8.47798 10.8332L10.9675 13.3227L16.5212 7.76843C16.5966 7.69293 16.6862 7.63304 16.7848 7.59217C16.8835 7.55131 16.9892 7.53027 17.0959 7.53027C17.2026 7.53027 17.3083 7.55131 17.4069 7.59217C17.5056 7.63304 17.5951 7.69293 17.6706 7.76843Z" fill="white"/>
</svg>
