<svg width="20" height="20" viewBox="0 0 20 20" fill="none" xmlns="http://www.w3.org/2000/svg">
<path d="M11.0113 8.15611C10.7489 7.89368 10.4374 7.68551 10.0946 7.54348C9.75183 7.40145 9.3844 7.32835 9.01334 7.32835C8.64227 7.32835 8.27484 7.40145 7.93203 7.54348C7.58923 7.68551 7.27776 7.89368 7.01542 8.15611L4.16125 11.0111C3.63148 11.541 3.33391 12.2596 3.33398 13.0089C3.33406 13.7582 3.63179 14.4768 4.16167 15.0065C4.69155 15.5363 5.41018 15.8339 6.15947 15.8338C6.90875 15.8337 7.62732 15.536 8.15709 15.0061L8.42459 14.7528M8.15709 11.0111C8.41943 11.2735 8.73089 11.4817 9.0737 11.6237C9.41651 11.7658 9.78394 11.8389 10.155 11.8389C10.5261 11.8389 10.8935 11.7658 11.2363 11.6237C11.5791 11.4817 11.8906 11.2735 12.1529 11.0111L15.0063 8.15611C15.5361 7.62634 15.8339 6.90777 15.8339 6.15849C15.834 5.4092 15.5364 4.69057 15.0067 4.16069C14.4769 3.63081 13.7583 3.33309 13.009 3.33301C12.2598 3.33293 11.5411 3.63051 11.0113 4.16028L10.1546 4.96111" stroke="#BBBBBB" stroke-width="2" stroke-linecap="round" stroke-linejoin="round"/>
</svg>
