<svg width="22" height="22" viewBox="0 0 22 22" fill="none" xmlns="http://www.w3.org/2000/svg">
<path d="M14.6663 19.25V17.4167C14.6663 16.4442 14.28 15.5116 13.5924 14.8239C12.9048 14.1363 11.9721 13.75 10.9997 13.75H5.49967C4.52721 13.75 3.59458 14.1363 2.90695 14.8239C2.21932 15.5116 1.83301 16.4442 1.83301 17.4167V19.25" stroke="#5F5F5F" stroke-width="2" stroke-linecap="round" stroke-linejoin="round"/>
<path d="M14.667 2.86719C15.4533 3.07103 16.1496 3.53018 16.6467 4.17258C17.1438 4.81498 17.4135 5.60425 17.4135 6.41652C17.4135 7.22879 17.1438 8.01807 16.6467 8.66046C16.1496 9.30286 15.4533 9.76201 14.667 9.96585" stroke="#5F5F5F" stroke-width="2" stroke-linecap="round" stroke-linejoin="round"/>
<path d="M20.167 19.25V17.4166C20.1664 16.6042 19.896 15.815 19.3982 15.1729C18.9005 14.5308 18.2036 14.0722 17.417 13.8691" stroke="#5F5F5F" stroke-width="2" stroke-linecap="round" stroke-linejoin="round"/>
<path d="M8.24967 10.0833C10.2747 10.0833 11.9163 8.44171 11.9163 6.41667C11.9163 4.39162 10.2747 2.75 8.24967 2.75C6.22463 2.75 4.58301 4.39162 4.58301 6.41667C4.58301 8.44171 6.22463 10.0833 8.24967 10.0833Z" stroke="#5F5F5F" stroke-width="2" stroke-linecap="round" stroke-linejoin="round"/>
</svg>
