<svg width="22" height="22" viewBox="0 0 22 22" fill="none" xmlns="http://www.w3.org/2000/svg">
<path d="M4.8125 18.0716H7.90625V12.8335C7.90625 12.5367 8.00508 12.2879 8.20273 12.0871C8.40039 11.8863 8.64531 11.7859 8.9375 11.7859H13.0625C13.3547 11.7859 13.5996 11.8863 13.7973 12.0871C13.9949 12.2879 14.0938 12.5367 14.0938 12.8335V18.0716H17.1875V8.64302L11 3.92873L4.8125 8.64302V18.0716ZM2.75 18.0716V8.64302C2.75 8.31127 2.82305 7.99699 2.96914 7.70016C3.11523 7.40334 3.31719 7.15889 3.575 6.96683L9.7625 2.25254C10.1234 1.97318 10.5359 1.8335 11 1.8335C11.4641 1.8335 11.8766 1.97318 12.2375 2.25254L18.425 6.96683C18.6828 7.15889 18.8848 7.40334 19.0309 7.70016C19.177 7.99699 19.25 8.31127 19.25 8.64302V18.0716C19.25 18.6478 19.048 19.141 18.6441 19.5514C18.2402 19.9617 17.7547 20.1668 17.1875 20.1668H13.0625C12.7703 20.1668 12.5254 20.0664 12.3277 19.8656C12.1301 19.6648 12.0312 19.416 12.0312 19.1192V13.8811H9.96875V19.1192C9.96875 19.416 9.86992 19.6648 9.67227 19.8656C9.47461 20.0664 9.22969 20.1668 8.9375 20.1668H4.8125C4.24531 20.1668 3.75977 19.9617 3.35586 19.5514C2.95195 19.141 2.75 18.6478 2.75 18.0716Z" fill="currentColor"/>
</svg>