<svg width="1028" height="253" viewBox="0 0 1028 253" fill="none" xmlns="http://www.w3.org/2000/svg">
<path fill-rule="evenodd" clip-rule="evenodd" d="M257.889 74.7043C273.977 74.7044 288.459 78.3527 301.329 85.6475C314.414 92.9421 324.71 103.456 332.217 117.186C339.726 130.703 343.48 146.475 343.48 164.497C343.479 165.145 343.16 169.65 342.516 178.013H218.31C220.67 188.74 225.926 197.216 234.077 203.438C242.443 209.66 252.847 212.772 265.289 212.772C273.87 212.772 281.378 211.484 287.814 208.909C294.463 206.12 300.684 201.829 306.476 196.036L331.896 225C316.237 243.666 293.605 253 264.002 253C245.339 253 228.821 249.245 214.448 241.736C200.291 234.012 189.35 223.392 181.628 209.876C173.905 196.359 170.044 181.016 170.044 163.852C170.045 146.903 173.799 131.669 181.307 118.153C189.029 104.422 199.54 93.8021 212.84 86.2927C226.354 78.5688 241.371 74.7043 257.889 74.7043ZM258.21 112.681C247.485 112.681 238.368 115.9 230.86 122.337C223.567 128.773 219.17 137.571 217.668 148.728H298.431C296.715 137.786 292.211 129.094 284.918 122.658C277.839 116.007 268.936 112.681 258.21 112.681Z" fill="#333333"/>
<path fill-rule="evenodd" clip-rule="evenodd" d="M444.26 74.7043C460.348 74.7044 474.829 78.3527 487.7 85.6475C500.785 92.9421 511.08 103.456 518.588 117.186C526.096 130.703 529.851 146.475 529.851 164.497C529.85 165.145 529.53 169.65 528.887 178.013H404.681C407.041 188.74 412.296 197.216 420.448 203.438C428.814 209.66 439.218 212.772 451.66 212.772C460.24 212.772 467.749 211.484 474.184 208.909C480.834 206.12 487.055 201.829 492.847 196.036L518.267 225C502.608 243.666 479.976 253 450.372 253C431.71 253 415.192 249.245 400.819 241.736C386.662 234.012 375.721 223.392 367.999 209.876C360.276 196.359 356.415 181.016 356.415 163.852C356.415 146.903 360.17 131.669 367.678 118.153C375.4 104.422 385.911 93.8021 399.211 86.2927C412.725 78.5688 427.742 74.7043 444.26 74.7043ZM444.581 112.681C433.855 112.681 424.739 115.9 417.231 122.337C409.937 128.773 405.541 137.571 404.039 148.728H484.801C483.085 137.786 478.582 129.094 471.289 122.658C464.21 116.007 455.306 112.681 444.581 112.681Z" fill="#333333"/>
<path d="M975.554 81.1423H1016.42V119.761H975.554V190.244C975.554 197.538 977.268 203.224 980.7 207.301C984.347 211.162 989.389 213.093 995.825 213.093C1003.33 213.093 1009.77 210.946 1015.13 206.655L1028 242.057C1023.28 245.704 1017.49 248.494 1010.62 250.425C1003.98 252.141 996.789 253 989.067 253C969.546 253 954.422 247.744 943.697 237.231C932.971 226.717 927.609 211.268 927.609 190.886V119.761H902.51V81.1423H927.609V38.9816H975.554V81.1423Z" fill="#333333"/>
<path d="M186.306 67.624H118.09V250.425H68.5369V67.624H0V25.145H186.306V67.624Z" fill="#333333"/>
<path d="M602.956 146.795L672.46 77.2795H729.416L660.876 150.658L735.529 250.425H677.609L625.805 182.518L602.956 206.334V250.425H555.015V11.6267H602.956V146.795Z" fill="#333333"/>
<path d="M798.377 250.425H750.435V11.6267H798.377V250.425Z" fill="#333333"/>
<path d="M884.068 250.425H836.126V77.2795H884.068V250.425Z" fill="#333333"/>
<path d="M876.12 0.0206252H890.425V14.9739C890.426 15.0111 890.428 15.0485 890.428 15.0858C890.428 15.1222 890.426 15.1585 890.425 15.1949V15.8224H890.408C890.035 23.5752 883.813 29.7894 876.058 30.151V30.1687H875.457C875.42 30.169 875.383 30.1717 875.345 30.1717C875.308 30.1717 875.27 30.169 875.233 30.1687H860.259V45.1455C860.259 45.1082 860.265 45.0709 860.265 45.0336V30.1717H876.064V30.1893C884.06 30.5653 890.428 37.1673 890.428 45.2575C890.428 45.4797 890.42 45.7006 890.411 45.9204V60.3433H874.612V60.3227C866.857 59.9518 860.638 53.7282 860.277 45.9705H860.265V45.4785C860.265 45.4412 860.262 45.4039 860.262 45.3665C860.262 45.4029 860.26 45.4392 860.259 45.4755V45.9705H860.247C859.875 53.9711 853.271 60.3433 845.179 60.3433C844.919 60.3433 844.661 60.3357 844.404 60.3227H830.096V44.5209H830.117C830.489 36.7699 836.708 30.5536 844.46 30.1893V30.151C836.464 29.7752 830.096 23.1761 830.096 15.0858C830.096 14.8627 830.104 14.6407 830.114 14.4199V0.00294645H845.067C845.104 0.00267291 845.142 2.43329e-06 845.179 0C845.216 0 845.254 0.00268019 845.291 0.00294645H845.913V0.0176787C853.666 0.388463 859.885 6.61345 860.247 14.3698H860.259L860.277 14.3669C860.652 6.36907 867.255 0 875.345 0C875.605 2.35733e-05 875.863 0.00761481 876.12 0.0206252Z" fill="#333333"/>
</svg>
